<svg xmlns="http://www.w3.org/2000/svg" width="35.153" height="37.364" viewBox="0 0 35.153 37.364"><path d="M14.427,30.888C6.265,33.337,6.265,26.807,3,25.991m22.855,9.795V29.468a5.5,5.5,0,0,0-1.535-4.261c5.126-.571,10.513-2.514,10.513-11.427a8.88,8.88,0,0,0-2.448-6.121A8.277,8.277,0,0,0,32.238,1.5S30.312.932,25.855,3.92a21.843,21.843,0,0,0-11.427,0C9.971.932,8.044,1.5,8.044,1.5A8.277,8.277,0,0,0,7.9,7.658a8.881,8.881,0,0,0-2.449,6.171c0,8.848,5.387,10.791,10.513,11.427a5.5,5.5,0,0,0-1.535,4.212v6.318" transform="translate(-1.181 0.078)" fill="none" stroke="#f1f1f1" stroke-linecap="round" stroke-linejoin="round" stroke-width="3"/></svg>