<svg xmlns="http://www.w3.org/2000/svg" width="45.376" height="32.777" viewBox="0 0 45.376 32.777">
  <g id="youtube_icon" transform="translate(1.5 1.5)">
    <path id="Path_1" data-name="Path 1" d="M42.988,10.661a5.354,5.354,0,0,0-3.737-3.852C35.938,6,22.687,6,22.687,6S9.436,6,6.123,6.886a5.354,5.354,0,0,0-3.737,3.852A55.856,55.856,0,0,0,1.5,20.927a55.855,55.855,0,0,0,.886,10.266,5.354,5.354,0,0,0,3.737,3.7c3.313.886,16.564.886,16.564.886s13.251,0,16.564-.886a5.354,5.354,0,0,0,3.737-3.852,55.855,55.855,0,0,0,.886-10.112,55.854,55.854,0,0,0-.886-10.266Z" transform="translate(-1.499 -6)" fill="none" stroke="#f1f1f1" stroke-linecap="round" stroke-linejoin="round" stroke-width="3"/>
    <path id="Path_2" data-name="Path 2" d="M14.625,25.316l11.075-6.3-11.075-6.3Z" transform="translate(2.229 -4.091)" fill="none" stroke="#f1f1f1" stroke-linecap="round" stroke-linejoin="round" stroke-width="3"/>
  </g>
</svg>
